<svg width="3444" height="633" viewBox="0 0 3444 633" fill="none" xmlns="http://www.w3.org/2000/svg">
<rect x="3270" y="477" width="174" height="147" fill="#ffffff"/>
<path d="M2939.07 155.28H3209.89V9.45599H2781.96V624H3209.89V477.308H2939.07V385.3H3188.19V250.76H2939.07V155.28Z" fill="white"/>
<path fill-rule="evenodd" clip-rule="evenodd" d="M2232 249.937V9H2462.02C2585.28 9 2700.72 71.496 2700.72 214.716V421.3C2700.72 562.784 2585.28 624.412 2462.02 623.544H2232V478.294H2397.3V477.72H2467.23C2520.18 477.72 2544.48 450.812 2544.48 410.884V219.056C2544.48 179.128 2519.31 153.956 2467.23 153.956H2388.24V377.034L2232 249.937Z" fill="white"/>
<path fill-rule="evenodd" clip-rule="evenodd" d="M1828.4 9H1969.88L2189.48 623.544H2022.83L2021.87 620.582L1904.2 187.479L1903.04 182.6H1898.7L1898.02 185.317L1781.19 621.829L1780.66 623.544H1614L1828.4 9Z" fill="white"/>
<path d="M1482.35 432.172C1448.5 517.236 1309.62 496.404 1309.62 422.624V210.832C1309.62 134.448 1446.77 117.088 1488.43 193.472L1615.16 142.26C1565.68 32.8919 1474.54 0.77594 1399.03 0.77594C1275.77 0.77594 1154.25 71.952 1154.25 210.832V422.624C1154.25 562.372 1275.77 632.68 1396.42 632.68C1473.67 632.68 1566.55 594.488 1617.76 494.668L1482.35 432.172Z" fill="white"/>
<path fill-rule="evenodd" clip-rule="evenodd" d="M1130.8 623.544H937.236L794.884 428.244H767.108V623.544H610V294.544H767.108V294.572H858.248C956.332 294.572 956.332 153.956 858.248 153.956H767.108V154.544H610V9H855.644C982.372 9 1080.46 67.156 1083.93 211.244C1083.93 324.952 1037.92 389.184 963.276 412.62L1130.8 623.544Z" fill="white"/>
<path fill-rule="evenodd" clip-rule="evenodd" d="M214.396 9H355.88L575.484 623.544H408.828L407.869 620.582L290.199 187.479L289.044 182.6H284.704L284.021 185.317L167.188 621.829L166.656 623.544H0L214.396 9Z" fill="white"/>
</svg>
