<svg width="50" height="50" viewBox="0 0 50 50" fill="none" xmlns="http://www.w3.org/2000/svg">
<path d="M37.6144 14.2168C35.3977 13.1834 32.9976 12.4334 30.4976 12.0001C30.4756 11.9994 30.4538 12.0035 30.4337 12.0121C30.4135 12.0208 30.3955 12.0337 30.3809 12.0501C30.0809 12.6001 29.7309 13.3168 29.4975 13.8668C26.8458 13.4668 24.149 13.4668 21.4973 13.8668C21.264 13.3001 20.914 12.6001 20.5973 12.0501C20.5806 12.0167 20.5306 12.0001 20.4806 12.0001C17.9805 12.4334 15.5971 13.1834 13.3638 14.2168C13.3471 14.2168 13.3304 14.2335 13.3138 14.2501C8.7803 21.0337 7.53026 27.6338 8.14694 34.1674C8.14694 34.2007 8.16361 34.234 8.19695 34.2507C11.197 36.4507 14.0804 37.7841 16.9305 38.6675C16.9805 38.6841 17.0305 38.6675 17.0472 38.6341C17.7139 37.7174 18.3139 36.7508 18.8306 35.7341C18.8639 35.6674 18.8306 35.6007 18.7639 35.5841C17.8139 35.2174 16.9139 34.784 16.0305 34.284C15.9638 34.2507 15.9638 34.1507 16.0138 34.1007C16.1972 33.9673 16.3805 33.8173 16.5638 33.684C16.5972 33.6507 16.6472 33.6507 16.6805 33.6673C22.414 36.2841 28.5975 36.2841 34.2643 33.6673C34.2977 33.6507 34.3477 33.6507 34.381 33.684C34.5643 33.834 34.7477 33.9673 34.931 34.1174C34.9977 34.1674 34.9977 34.2674 34.9143 34.3007C34.0477 34.8174 33.131 35.234 32.1809 35.6007C32.1143 35.6174 32.0976 35.7007 32.1143 35.7507C32.6476 36.7674 33.2476 37.7341 33.8977 38.6508C33.9477 38.6675 33.9977 38.6841 34.0477 38.6675C36.9144 37.7841 39.7978 36.4507 42.7979 34.2507C42.8312 34.234 42.8479 34.2007 42.8479 34.1674C43.5812 26.6171 41.6312 20.067 37.6811 14.2501C37.6644 14.2335 37.6478 14.2168 37.6144 14.2168ZM19.6973 30.1839C17.9805 30.1839 16.5472 28.6005 16.5472 26.6505C16.5472 24.7004 17.9472 23.117 19.6973 23.117C21.464 23.117 22.864 24.7171 22.8473 26.6505C22.8473 28.6005 21.4473 30.1839 19.6973 30.1839ZM31.3142 30.1839C29.5975 30.1839 28.1642 28.6005 28.1642 26.6505C28.1642 24.7004 29.5642 23.117 31.3142 23.117C33.081 23.117 34.481 24.7171 34.4643 26.6505C34.4643 28.6005 33.081 30.1839 31.3142 30.1839Z" fill="black"/>
</svg>
