<svg width="46" height="40" viewBox="0 0 46 40" fill="none" xmlns="http://www.w3.org/2000/svg">
<path d="M45.3846 22.2222C45.3846 24.6889 43.365 26.6667 40.8462 26.6667H4.53846C3.33479 26.6667 2.18041 26.1984 1.32928 25.3649C0.478158 24.5314 0 23.401 0 22.2222C0 21.0435 0.478158 19.913 1.32928 19.0795C2.18041 18.246 3.33479 17.7778 4.53846 17.7778H8L12.0769 21.5L16 17.7778H40.8462C42.0498 17.7778 43.2042 18.246 44.0553 19.0795C44.9065 19.913 45.3846 21.0435 45.3846 22.2222ZM22.6923 0C2.26923 0 2.26923 13.3333 2.26923 13.3333H43.1154C43.1154 13.3333 43.1154 0 22.6923 0ZM2.26923 33.3333C2.26923 37.0222 5.31 40 9.07692 40H36.3077C40.0746 40 43.1154 37.0222 43.1154 33.3333V31.1111H2.26923V33.3333Z" fill="white"/>
</svg>
