<svg width="50" height="50" viewBox="0 0 50 50" fill="none" xmlns="http://www.w3.org/2000/svg">
<path d="M43 14.3461C41.7118 14.9316 40.3231 15.3164 38.8843 15.5005C40.3566 14.6138 41.4943 13.2084 42.0296 11.5186C40.641 12.3552 39.1018 12.9407 37.479 13.2753C36.1573 11.8365 34.3002 11 32.1922 11C28.2605 11 25.0483 14.2122 25.0483 18.1773C25.0483 18.7462 25.1152 19.2983 25.2323 19.8169C19.2763 19.5158 13.9728 16.6549 10.4426 12.3217C9.82361 13.3757 9.47228 14.6138 9.47228 15.9187C9.47228 18.4116 10.7271 20.62 12.6678 21.8748C11.4799 21.8748 10.3757 21.5402 9.40535 21.0382V21.0884C9.40535 24.5684 11.8815 27.4794 15.1606 28.1319C14.1078 28.42 13.0025 28.4601 11.9316 28.249C12.3861 29.6753 13.276 30.9232 14.4764 31.8175C15.6767 32.7118 17.1272 33.2074 18.6238 33.2347C16.0869 35.2431 12.9422 36.3287 9.7065 36.3131C9.13767 36.3131 8.56883 36.2796 8 36.2127C11.1788 38.2538 14.9598 39.4417 19.0086 39.4417C32.1922 39.4417 39.4364 28.5 39.4364 19.0139C39.4364 18.696 39.4364 18.3948 39.4197 18.077C40.825 17.0731 42.0296 15.8016 43 14.3461Z" fill="black"/>
</svg>
