<svg width="41" height="41" viewBox="0 0 41 41" fill="none" xmlns="http://www.w3.org/2000/svg">
<circle cx="20.3" cy="20.3" r="20.3" fill="#79174C"/>
<path d="M10.6 13.375C10.6 13.375 12.025 11 15.35 11C18.675 11 20.1 13.375 20.1 13.375V30C20.1 30 18.675 28.8125 15.35 28.8125C12.025 28.8125 10.6 30 10.6 30V13.375ZM20.1 13.375C20.1 13.375 21.525 11 24.85 11C28.175 11 29.6 13.375 29.6 13.375V30C29.6 30 28.175 28.8125 24.85 28.8125C21.525 28.8125 20.1 30 20.1 30V13.375Z" stroke="#FF70BD" stroke-width="3" stroke-linecap="round" stroke-linejoin="round"/>
</svg>
