<svg width="47" height="47" viewBox="0 0 47 47" fill="none" xmlns="http://www.w3.org/2000/svg">
<circle cx="23.3" cy="23.3" r="21.8" fill="#79174C" stroke="black" stroke-width="3"/>
<path d="M13.6 16.375C13.6 16.375 15.025 14 18.35 14C21.675 14 23.1 16.375 23.1 16.375V33C23.1 33 21.675 31.8125 18.35 31.8125C15.025 31.8125 13.6 33 13.6 33V16.375ZM23.1 16.375C23.1 16.375 24.525 14 27.85 14C31.175 14 32.6 16.375 32.6 16.375V33C32.6 33 31.175 31.8125 27.85 31.8125C24.525 31.8125 23.1 33 23.1 33V16.375Z" stroke="#FF70BD" stroke-width="3" stroke-linecap="round" stroke-linejoin="round"/>
</svg>
