<svg width="41" height="41" viewBox="0 0 41 41" fill="none" xmlns="http://www.w3.org/2000/svg">
<g clip-path="url(#clip0_639_92)">
<path d="M20.3 40.6C31.5114 40.6 40.6 31.5114 40.6 20.3C40.6 9.08862 31.5114 0 20.3 0C9.08862 0 0 9.08862 0 20.3C0 31.5114 9.08862 40.6 20.3 40.6Z" fill="#AB5200"/>
<path d="M23.6 12C24.2365 12 24.847 12.2408 25.2971 12.6695C25.7471 13.0981 26 13.6795 26 14.2857V28L20 24.5714L14 28V14.2857C14 13.6795 14.2529 13.0981 14.7029 12.6695C15.153 12.2408 15.7635 12 16.4 12H23.6Z" stroke="#FFA34E" stroke-width="2.5" stroke-linecap="round" stroke-linejoin="round"/>
</g>
<defs>
<clipPath id="clip0_639_92">
<rect width="40.6" height="40.6" fill="white"/>
</clipPath>
</defs>
</svg>
