<svg width="41" height="41" viewBox="0 0 41 41" fill="none" xmlns="http://www.w3.org/2000/svg">
<path d="M20 40C31.0457 40 40 31.0457 40 20C40 8.9543 31.0457 0 20 0C8.9543 0 0 8.9543 0 20C0 31.0457 8.9543 40 20 40Z" fill="#330075"/>
<path fill-rule="evenodd" clip-rule="evenodd" d="M20.5 11C15.2513 11 11 15.3588 11 20.7403C11 25.0504 13.7193 28.6908 17.4956 29.9814C17.9706 30.0666 18.1487 29.7745 18.1487 29.5188C18.1487 29.2874 18.1368 28.5204 18.1368 27.7046C15.75 28.1551 15.1325 27.108 14.9425 26.5601C14.8356 26.2801 14.3725 25.4157 13.9687 25.1843C13.6362 25.0017 13.1613 24.5512 13.9569 24.539C14.705 24.5268 15.2393 25.2452 15.4175 25.5374C16.2725 27.0106 17.6381 26.5967 18.1844 26.341C18.2675 25.7078 18.5169 25.2817 18.79 25.0382C16.6762 24.7947 14.4675 23.9546 14.4675 20.2289C14.4675 19.1696 14.8356 18.293 15.4412 17.6112C15.3462 17.3677 15.0137 16.3693 15.5363 15.0301C15.5363 15.0301 16.3319 14.7744 18.1487 16.0284C18.9087 15.8093 19.7162 15.6997 20.5237 15.6997C21.3313 15.6997 22.1387 15.8093 22.8987 16.0284C24.7156 14.7622 25.5112 15.0301 25.5112 15.0301C26.0337 16.3693 25.7012 17.3677 25.6062 17.6112C26.2119 18.293 26.5799 19.1575 26.5799 20.2289C26.5799 23.9668 24.3594 24.7947 22.2456 25.0382C22.59 25.3426 22.8868 25.927 22.8868 26.8401C22.8868 28.1429 22.875 29.19 22.875 29.5188C22.875 29.7745 23.0531 30.0788 23.5281 29.9814C25.414 29.3286 27.0527 28.0858 28.2137 26.4281C29.3747 24.7704 29.9994 22.7811 30 20.7403C30 15.3588 25.7488 11 20.5 11Z" fill="#A157FF"/>
</svg>
