<svg width="41" height="41" viewBox="0 0 41 41" fill="none" xmlns="http://www.w3.org/2000/svg">
<circle cx="20.3" cy="20.3" r="20.3" fill="#330075"/>
<path fill-rule="evenodd" clip-rule="evenodd" d="M20.5656 10C14.6176 10 9.79999 14.8176 9.79999 20.7656C9.79999 25.5294 12.8816 29.553 17.161 30.9794C17.6992 31.0736 17.9011 30.7507 17.9011 30.4681C17.9011 30.2124 17.8876 29.3646 17.8876 28.463C15.1828 28.9609 14.483 27.8036 14.2677 27.198C14.1466 26.8885 13.6218 25.9331 13.1642 25.6774C12.7874 25.4755 12.2492 24.9776 13.1508 24.9642C13.9986 24.9507 14.6041 25.7447 14.806 26.0676C15.7749 27.6959 17.3224 27.2384 17.9415 26.9558C18.0357 26.256 18.3183 25.785 18.6278 25.5159C16.2324 25.2468 13.7294 24.3182 13.7294 20.2004C13.7294 19.0296 14.1466 18.0607 14.8329 17.3071C14.7252 17.038 14.3484 15.9345 14.9406 14.4543C14.9406 14.4543 15.8422 14.1717 17.9011 15.5577C18.7623 15.3155 19.6774 15.1944 20.5925 15.1944C21.5076 15.1944 22.4226 15.3155 23.2839 15.5577C25.3428 14.1582 26.2444 14.4543 26.2444 14.4543C26.8365 15.9345 26.4597 17.038 26.3521 17.3071C27.0384 18.0607 27.4555 19.0162 27.4555 20.2004C27.4555 24.3317 24.9391 25.2468 22.5437 25.5159C22.934 25.8523 23.2704 26.4983 23.2704 27.5075C23.2704 28.9474 23.257 30.1047 23.257 30.4681C23.257 30.7507 23.4588 31.0871 23.9971 30.9794C26.1342 30.2579 27.9913 28.8843 29.3069 27.0521C30.6226 25.2199 31.3305 23.0212 31.3312 20.7656C31.3312 14.8176 26.5136 10 20.5656 10Z" fill="#A157FF"/>
</svg>
