<svg width="47" height="47" viewBox="0 0 47 47" fill="none" xmlns="http://www.w3.org/2000/svg">
<circle cx="23.3" cy="23.3" r="21.8" fill="#330075" stroke="black" stroke-width="3"/>
<path fill-rule="evenodd" clip-rule="evenodd" d="M23.5656 13C17.6176 13 12.8 17.8176 12.8 23.7656C12.8 28.5294 15.8816 32.553 20.161 33.9794C20.6992 34.0736 20.9011 33.7507 20.9011 33.4681C20.9011 33.2124 20.8876 32.3646 20.8876 31.463C18.1828 31.9609 17.483 30.8036 17.2677 30.198C17.1466 29.8885 16.6218 28.9331 16.1642 28.6774C15.7874 28.4755 15.2492 27.9776 16.1508 27.9642C16.9986 27.9507 17.6041 28.7447 17.806 29.0676C18.7749 30.6959 20.3224 30.2384 20.9415 29.9558C21.0357 29.256 21.3183 28.785 21.6278 28.5159C19.2324 28.2468 16.7294 27.3182 16.7294 23.2004C16.7294 22.0296 17.1466 21.0607 17.8329 20.3071C17.7252 20.038 17.3484 18.9345 17.9406 17.4543C17.9406 17.4543 18.8422 17.1717 20.9011 18.5577C21.7623 18.3155 22.6774 18.1944 23.5925 18.1944C24.5076 18.1944 25.4226 18.3155 26.2839 18.5577C28.3428 17.1582 29.2444 17.4543 29.2444 17.4543C29.8365 18.9345 29.4597 20.038 29.3521 20.3071C30.0384 21.0607 30.4555 22.0162 30.4555 23.2004C30.4555 27.3317 27.9391 28.2468 25.5437 28.5159C25.934 28.8523 26.2704 29.4983 26.2704 30.5075C26.2704 31.9474 26.257 33.1047 26.257 33.4681C26.257 33.7507 26.4588 34.0871 26.9971 33.9794C29.1342 33.2579 30.9913 31.8843 32.3069 30.0521C33.6226 28.2199 34.3305 26.0212 34.3312 23.7656C34.3312 17.8176 29.5136 13 23.5656 13Z" fill="#A157FF"/>
</svg>
