<svg width="41" height="41" viewBox="0 0 41 41" fill="none" xmlns="http://www.w3.org/2000/svg">
<circle cx="20.3" cy="20.3" r="20.3" fill="#003475"/>
<path d="M19.9 10C17.1153 10 14.4445 11.1062 12.4754 13.0754C10.5063 15.0445 9.40002 17.7152 9.40002 20.5C9.40002 23.2848 10.5063 25.9555 12.4754 27.9246C14.4445 29.8938 17.1153 31 19.9 31C22.6848 31 25.3555 29.8938 27.3246 27.9246C29.2938 25.9555 30.4 23.2848 30.4 20.5C30.4 17.7152 29.2938 15.0445 27.3246 13.0754C25.3555 11.1062 22.6848 10 19.9 10ZM19.9 29.3846C17.5437 29.3846 15.2838 28.4486 13.6177 26.7824C11.9515 25.1162 11.0154 22.8563 11.0154 20.5C11.0154 18.1437 11.9515 15.8838 13.6177 14.2176C15.2838 12.5514 17.5437 11.6154 19.9 11.6154C22.2564 11.6154 24.5162 12.5514 26.1824 14.2176C27.8486 15.8838 28.7846 18.1437 28.7846 20.5C28.7846 22.8563 27.8486 25.1162 26.1824 26.7824C24.5162 28.4486 22.2564 29.3846 19.9 29.3846Z" fill="#4296FF"/>
<path d="M20.0154 22.2308C20.9076 22.2308 21.6308 21.5075 21.6308 20.6154C21.6308 19.7232 20.9076 19 20.0154 19C19.1233 19 18.4 19.7232 18.4 20.6154C18.4 21.5075 19.1233 22.2308 20.0154 22.2308Z" fill="#4296FF"/>
<path d="M19.9 10C17.1153 10 14.4445 11.1062 12.4754 13.0754C10.5063 15.0445 9.40002 17.7152 9.40002 20.5C9.40002 23.2848 10.5063 25.9555 12.4754 27.9246C14.4445 29.8938 17.1153 31 19.9 31C22.6848 31 25.3555 29.8938 27.3246 27.9246C29.2938 25.9555 30.4 23.2848 30.4 20.5C30.4 17.7152 29.2938 15.0445 27.3246 13.0754C25.3555 11.1062 22.6848 10 19.9 10ZM19.9 29.3846C17.5437 29.3846 15.2838 28.4486 13.6177 26.7824C11.9515 25.1162 11.0154 22.8563 11.0154 20.5C11.0154 18.1437 11.9515 15.8838 13.6177 14.2176C15.2838 12.5514 17.5437 11.6154 19.9 11.6154C22.2564 11.6154 24.5162 12.5514 26.1824 14.2176C27.8486 15.8838 28.7846 18.1437 28.7846 20.5C28.7846 22.8563 27.8486 25.1162 26.1824 26.7824C24.5162 28.4486 22.2564 29.3846 19.9 29.3846Z" stroke="#4296FF"/>
<path d="M20.0154 22.2308C20.9076 22.2308 21.6308 21.5075 21.6308 20.6154C21.6308 19.7232 20.9076 19 20.0154 19C19.1233 19 18.4 19.7232 18.4 20.6154C18.4 21.5075 19.1233 22.2308 20.0154 22.2308Z" stroke="#4296FF"/>
</svg>
