<svg width="41" height="41" viewBox="0 0 41 41" fill="none" xmlns="http://www.w3.org/2000/svg">
<g clip-path="url(#clip0_639_77)">
<path d="M20.3 40.6C31.5114 40.6 40.6 31.5114 40.6 20.3C40.6 9.08862 31.5114 0 20.3 0C9.08862 0 0 9.08862 0 20.3C0 31.5114 9.08862 40.6 20.3 40.6Z" fill="#003475"/>
<path d="M20.604 22.0652C21.4111 22.0652 22.0652 21.411 22.0652 20.604C22.0652 19.797 21.4111 19.1429 20.604 19.1429C19.7971 19.1429 19.1428 19.797 19.1428 20.604C19.1428 21.411 19.7971 22.0652 20.604 22.0652Z" fill="#4296FF"/>
<path d="M20.5 11C17.9805 11 15.5641 12.0008 13.7825 13.7825C12.0009 15.5641 11 17.9804 11 20.5C11 23.0196 12.0009 25.4359 13.7825 27.2175C15.5641 28.9991 17.9805 30 20.5 30C23.0196 30 25.4359 28.9991 27.2175 27.2175C28.9991 25.4359 30 23.0196 30 20.5C30 17.9804 28.9991 15.5641 27.2175 13.7825C25.4359 12.0008 23.0196 11 20.5 11ZM20.5 28.5384C18.3681 28.5384 16.3234 27.6916 14.816 26.1841C13.3085 24.6766 12.4615 22.6319 12.4615 20.5C12.4615 18.3681 13.3085 16.3234 14.816 14.8159C16.3234 13.3084 18.3681 12.4616 20.5 12.4616C22.632 12.4616 24.6765 13.3084 26.1841 14.8159C27.6916 16.3234 28.5384 18.3681 28.5384 20.5C28.5384 22.6319 27.6916 24.6766 26.1841 26.1841C24.6765 27.6916 22.632 28.5384 20.5 28.5384Z" fill="#4296FF"/>
<path d="M20.5 11C17.9805 11 15.5641 12.0008 13.7825 13.7825C12.0009 15.5641 11 17.9804 11 20.5C11 23.0196 12.0009 25.4359 13.7825 27.2175C15.5641 28.9991 17.9805 30 20.5 30C23.0196 30 25.4359 28.9991 27.2175 27.2175C28.9991 25.4359 30 23.0196 30 20.5C30 17.9804 28.9991 15.5641 27.2175 13.7825C25.4359 12.0008 23.0196 11 20.5 11ZM20.5 28.5384C18.3681 28.5384 16.3234 27.6916 14.816 26.1841C13.3085 24.6766 12.4615 22.6319 12.4615 20.5C12.4615 18.3681 13.3085 16.3234 14.816 14.8159C16.3234 13.3084 18.3681 12.4616 20.5 12.4616C22.632 12.4616 24.6765 13.3084 26.1841 14.8159C27.6916 16.3234 28.5384 18.3681 28.5384 20.5C28.5384 22.6319 27.6916 24.6766 26.1841 26.1841C24.6765 27.6916 22.632 28.5384 20.5 28.5384Z" fill="#4296FF"/>
<path d="M20.5 11C17.9805 11 15.5641 12.0008 13.7825 13.7825C12.0009 15.5641 11 17.9804 11 20.5C11 23.0196 12.0009 25.4359 13.7825 27.2175C15.5641 28.9991 17.9805 30 20.5 30C23.0196 30 25.4359 28.9991 27.2175 27.2175C28.9991 25.4359 30 23.0196 30 20.5C30 17.9804 28.9991 15.5641 27.2175 13.7825C25.4359 12.0008 23.0196 11 20.5 11ZM20.5 28.5384C18.3681 28.5384 16.3234 27.6916 14.816 26.1841C13.3085 24.6766 12.4615 22.6319 12.4615 20.5C12.4615 18.3681 13.3085 16.3234 14.816 14.8159C16.3234 13.3084 18.3681 12.4616 20.5 12.4616C22.632 12.4616 24.6765 13.3084 26.1841 14.8159C27.6916 16.3234 28.5384 18.3681 28.5384 20.5C28.5384 22.6319 27.6916 24.6766 26.1841 26.1841C24.6765 27.6916 22.632 28.5384 20.5 28.5384Z" stroke="#4296FF"/>
</g>
<defs>
<clipPath id="clip0_639_77">
<rect width="40.6" height="40.6" fill="white"/>
</clipPath>
</defs>
</svg>
