<svg width="47" height="47" viewBox="0 0 47 47" fill="none" xmlns="http://www.w3.org/2000/svg">
<circle cx="23.3" cy="23.3" r="21.8" fill="#003475" stroke="black" stroke-width="3"/>
<path d="M22.9 13C20.1153 13 17.4445 14.1062 15.4754 16.0754C13.5063 18.0445 12.4 20.7152 12.4 23.5C12.4 26.2848 13.5063 28.9555 15.4754 30.9246C17.4445 32.8938 20.1153 34 22.9 34C25.6848 34 28.3555 32.8938 30.3246 30.9246C32.2938 28.9555 33.4 26.2848 33.4 23.5C33.4 20.7152 32.2938 18.0445 30.3246 16.0754C28.3555 14.1062 25.6848 13 22.9 13ZM22.9 32.3846C20.5437 32.3846 18.2838 31.4486 16.6177 29.7824C14.9515 28.1162 14.0154 25.8563 14.0154 23.5C14.0154 21.1437 14.9515 18.8838 16.6177 17.2176C18.2838 15.5514 20.5437 14.6154 22.9 14.6154C25.2564 14.6154 27.5162 15.5514 29.1824 17.2176C30.8486 18.8838 31.7846 21.1437 31.7846 23.5C31.7846 25.8563 30.8486 28.1162 29.1824 29.7824C27.5162 31.4486 25.2564 32.3846 22.9 32.3846Z" fill="#4296FF"/>
<path d="M23.0154 25.2308C23.9076 25.2308 24.6308 24.5075 24.6308 23.6154C24.6308 22.7232 23.9076 22 23.0154 22C22.1233 22 21.4 22.7232 21.4 23.6154C21.4 24.5075 22.1233 25.2308 23.0154 25.2308Z" fill="#4296FF"/>
<path d="M22.9 13C20.1153 13 17.4445 14.1062 15.4754 16.0754C13.5063 18.0445 12.4 20.7152 12.4 23.5C12.4 26.2848 13.5063 28.9555 15.4754 30.9246C17.4445 32.8938 20.1153 34 22.9 34C25.6848 34 28.3555 32.8938 30.3246 30.9246C32.2938 28.9555 33.4 26.2848 33.4 23.5C33.4 20.7152 32.2938 18.0445 30.3246 16.0754C28.3555 14.1062 25.6848 13 22.9 13ZM22.9 32.3846C20.5437 32.3846 18.2838 31.4486 16.6177 29.7824C14.9515 28.1162 14.0154 25.8563 14.0154 23.5C14.0154 21.1437 14.9515 18.8838 16.6177 17.2176C18.2838 15.5514 20.5437 14.6154 22.9 14.6154C25.2564 14.6154 27.5162 15.5514 29.1824 17.2176C30.8486 18.8838 31.7846 21.1437 31.7846 23.5C31.7846 25.8563 30.8486 28.1162 29.1824 29.7824C27.5162 31.4486 25.2564 32.3846 22.9 32.3846Z" stroke="#4296FF"/>
<path d="M23.0154 25.2308C23.9076 25.2308 24.6308 24.5075 24.6308 23.6154C24.6308 22.7232 23.9076 22 23.0154 22C22.1233 22 21.4 22.7232 21.4 23.6154C21.4 24.5075 22.1233 25.2308 23.0154 25.2308Z" stroke="#4296FF"/>
</svg>
