<svg width="47" height="47" viewBox="0 0 47 47" fill="none" xmlns="http://www.w3.org/2000/svg">
<circle cx="23.3" cy="23.3" r="21.8" fill="#0E5119" stroke="black" stroke-width="3"/>
<path d="M17 14.25H24.2218C24.4208 14.25 24.6115 14.329 24.7522 14.4697L30.5303 20.2478C30.671 20.3885 30.75 20.5792 30.75 20.7782V32C30.75 32.4142 30.4142 32.75 30 32.75H17C16.5858 32.75 16.25 32.4142 16.25 32V15C16.25 14.5858 16.5858 14.25 17 14.25Z" stroke="#94FFA5" stroke-width="2.5"/>
<path d="M25.5 15H23V20C23 21.1046 23.8954 22 25 22H31V19.5H25.5V15Z" fill="#94FFA5"/>
<path d="M22 23H24V29H22V23Z" fill="#94FFA5"/>
<path d="M20 25H26V27H20V25Z" fill="#94FFA5"/>
</svg>
