<svg width="41" height="41" viewBox="0 0 41 41" fill="none" xmlns="http://www.w3.org/2000/svg">
<g clip-path="url(#clip0_639_83)">
<path d="M20.3 40.6C31.5114 40.6 40.6 31.5114 40.6 20.3C40.6 9.08862 31.5114 0 20.3 0C9.08862 0 0 9.08862 0 20.3C0 31.5114 9.08862 40.6 20.3 40.6Z" fill="#0E5119"/>
<path d="M20.9488 13C21.1222 13 21.2885 13.0641 21.4111 13.1781L26.4477 17.8631C26.5704 17.9772 26.6392 18.1318 26.6392 18.2931V27.3919C26.6392 27.7277 26.3465 28 25.9855 28H14.6538C14.2927 28 14 27.7277 14 27.3919V13.6081C14 13.2723 14.2927 13 14.6538 13H20.9488Z" stroke="#94FFA5" stroke-width="2.5"/>
<path d="M22.063 13.6081H19.8838V17.6622C19.8838 18.5578 20.6643 19.2838 21.6271 19.2838H26.8571V17.2568H22.063V13.6081Z" fill="#94FFA5"/>
<path d="M19.0121 20.0946H20.7555V24.9595H19.0121V20.0946Z" fill="#94FFA5"/>
<path d="M17.2688 21.7162H22.4988V23.3379H17.2688V21.7162Z" fill="#94FFA5"/>
</g>
<defs>
<clipPath id="clip0_639_83">
<rect width="40.6" height="40.6" fill="white"/>
</clipPath>
</defs>
</svg>
