<svg width="41" height="41" viewBox="0 0 41 41" fill="none" xmlns="http://www.w3.org/2000/svg">
<circle cx="20.3" cy="20.3" r="20.3" fill="#0E5119"/>
<path d="M21.2218 11.25C21.4208 11.25 21.6115 11.329 21.7522 11.4697L27.5303 17.2478C27.671 17.3885 27.75 17.5792 27.75 17.7782V29C27.75 29.4142 27.4142 29.75 27 29.75H14C13.5858 29.75 13.25 29.4142 13.25 29V12C13.25 11.5858 13.5858 11.25 14 11.25H21.2218Z" stroke="#94FFA5" stroke-width="2.5"/>
<path d="M22.5 12H20V17C20 18.1046 20.8954 19 22 19H28V16.5H22.5V12Z" fill="#94FFA5"/>
<path d="M19 20H21V26H19V20Z" fill="#94FFA5"/>
<path d="M17 22H23V24H17V22Z" fill="#94FFA5"/>
</svg>
