<svg width="40" height="40" viewBox="0 0 40 40" fill="none" xmlns="http://www.w3.org/2000/svg">
<circle cx="20" cy="20" r="20" fill="white"/>
<path d="M16.8422 26.103C16.8422 27.1365 16.4342 28.1277 15.708 28.8586C14.9818 29.5894 13.9969 30 12.9699 30C11.9429 30 10.9579 29.5894 10.2317 28.8586C9.50551 28.1277 9.09753 27.1365 9.09753 26.103C9.09753 25.0694 9.50551 24.0782 10.2317 23.3474C10.9579 22.6165 11.9429 22.206 12.9699 22.206C13.9969 22.206 14.9818 22.6165 15.708 23.3474C16.4342 24.0782 16.8422 25.0694 16.8422 26.103V26.103ZM30.7826 26.103C30.7826 27.1365 30.3747 28.1277 29.6485 28.8586C28.9223 29.5894 27.9373 30 26.9103 30C25.8833 30 24.8984 29.5894 24.1721 28.8586C23.4459 28.1277 23.038 27.1365 23.038 26.103C23.038 25.0694 23.4459 24.0782 24.1721 23.3474C24.8984 22.6165 25.8833 22.206 26.9103 22.206C27.9373 22.206 28.9223 22.6165 29.6485 23.3474C30.3747 24.0782 30.7826 25.0694 30.7826 26.103V26.103Z" stroke="black" stroke-width="3"/>
<path d="M16.8426 26.7625L17.1694 26.5973C18.0297 26.1643 18.9785 25.9389 19.9404 25.9389C20.9024 25.9389 21.8511 26.1643 22.7115 26.5973L23.0383 26.7625M27.6851 17.4097L25.1294 10.9796C24.9826 10.6105 24.7011 10.3117 24.3426 10.1445C23.9841 9.97731 23.5757 9.9543 23.2009 10.0802L20.9194 10.8456C20.2839 11.0586 19.597 11.0586 18.9615 10.8456L16.6784 10.0833C16.3038 9.95732 15.8955 9.98011 15.5371 10.147C15.1786 10.3139 14.897 10.6123 14.7499 10.9812L12.1957 17.4097M6 18.9685C17.617 17.4097 23.0383 17.4097 33.8808 18.9685" stroke="black" stroke-width="3" stroke-linecap="round" stroke-linejoin="round"/>
</svg>
