<svg width="3444" height="1042" viewBox="0 0 3444 1042" fill="none" xmlns="http://www.w3.org/2000/svg">
<rect x="3270" y="596" width="174" height="147" fill="white"/>
<path d="M2939.07 274.28H3209.89V128.456H2781.96V743H3209.89V596.308H2939.07V504.3H3188.19V369.76H2939.07V274.28Z" fill="white"/>
<path fill-rule="evenodd" clip-rule="evenodd" d="M2232 368.937V128H2462.02C2585.28 128 2700.72 190.496 2700.72 333.716V540.3C2700.72 681.784 2585.28 743.412 2462.02 742.544H2232V597.294H2397.3V596.72H2467.23C2520.18 596.72 2544.48 569.812 2544.48 529.884V338.056C2544.48 298.128 2519.31 272.956 2467.23 272.956H2388.24V496.034L2232 368.937Z" fill="white"/>
<path fill-rule="evenodd" clip-rule="evenodd" d="M1828.4 128H1969.88L2189.48 742.544H2022.83L2021.87 739.582L1904.2 306.479L1903.04 301.6H1898.7L1898.02 304.317L1781.19 740.829L1780.66 742.544H1614L1828.4 128Z" fill="white"/>
<path d="M1482.35 551.172C1448.5 636.236 1309.62 615.404 1309.62 541.624V329.832C1309.62 253.448 1446.77 236.088 1488.43 312.472L1615.16 261.26C1565.68 151.892 1474.54 119.776 1399.03 119.776C1275.77 119.776 1154.25 190.952 1154.25 329.832V541.624C1154.25 681.372 1275.77 751.68 1396.42 751.68C1473.67 751.68 1566.55 713.488 1617.76 613.668L1482.35 551.172Z" fill="white"/>
<path fill-rule="evenodd" clip-rule="evenodd" d="M1130.8 742.544H937.236L794.884 547.244H767.108V742.544H610V413.544H767.108V413.572H858.248C956.332 413.572 956.332 272.956 858.248 272.956H767.108V273.544H610V128H855.644C982.372 128 1080.46 186.156 1083.93 330.244C1083.93 443.952 1037.92 508.184 963.276 531.62L1130.8 742.544Z" fill="white"/>
<path fill-rule="evenodd" clip-rule="evenodd" d="M214.396 128H355.88L575.484 742.544H408.828L407.869 739.582L290.199 306.479L289.044 301.6H284.704L284.021 304.317L167.188 740.829L166.656 742.544H0L214.396 128Z" fill="white"/>
</svg>
