<svg width="46" height="41" viewBox="0 0 46 41" fill="none" xmlns="http://www.w3.org/2000/svg">
<path fill-rule="evenodd" clip-rule="evenodd" d="M44.2408 25.1817C44.9533 24.3976 45.3846 23.3621 45.3846 22.2222C45.3846 21.0435 44.9065 19.913 44.0553 19.0795C43.2042 18.246 42.0498 17.7778 40.8462 17.7778H16L12.0769 21.5L8 17.7778H4.53846C3.33479 17.7778 2.18041 18.246 1.32928 19.0795C0.478157 19.913 0 21.0435 0 22.2222C0 23.401 0.478157 24.5314 1.32928 25.3649C2.18041 26.1984 3.33479 26.6667 4.53846 26.6667H29.0804C31.18 24.4109 34.1752 23 37.5 23C40.0179 23 42.3468 23.8092 44.2408 25.1817ZM26.5075 31.1111C26.1776 32.1824 26 33.3205 26 34.5C26 36.4923 26.5066 38.3662 27.398 40H9.07692C5.31 40 2.26923 37.0222 2.26923 33.3333V31.1111H26.5075ZM2.26923 13.3333C2.26923 13.3333 2.26923 0 22.6923 0C43.1154 0 43.1154 13.3333 43.1154 13.3333H2.26923Z" fill="white"/>
<path d="M43.8807 38.4435L39.9373 34.5L43.8807 30.5565C43.9563 30.48 43.9987 30.3769 43.9987 30.2693C43.9987 30.1618 43.9563 30.0586 43.8807 29.9821L42.0179 28.1193C41.9802 28.0815 41.9354 28.0515 41.8862 28.031C41.8369 28.0105 41.784 28 41.7307 28C41.6773 28 41.6245 28.0105 41.5752 28.031C41.5259 28.0515 41.4811 28.0815 41.4435 28.1193L37.5 32.0627L33.5565 28.1193C33.4803 28.0431 33.377 28.0003 33.2693 28.0003C33.1616 28.0003 33.0583 28.0431 32.9821 28.1193L31.1193 29.9821C31.0815 30.0198 31.0515 30.0646 31.031 30.1138C31.0105 30.1631 31 30.216 31 30.2693C31 30.3227 31.0105 30.3755 31.031 30.4248C31.0515 30.4741 31.0815 30.5189 31.1193 30.5565L35.0627 34.5L31.1193 38.4435C31.0431 38.5197 31.0003 38.623 31.0003 38.7307C31.0003 38.8384 31.0431 38.9417 31.1193 39.0179L32.9821 40.8807C33.0198 40.9185 33.0646 40.9485 33.1138 40.969C33.1631 40.9895 33.216 41 33.2693 41C33.3227 41 33.3755 40.9895 33.4248 40.969C33.4741 40.9485 33.5189 40.9185 33.5565 40.8807L37.5 36.9373L41.4435 40.8807C41.5197 40.9569 41.623 40.9997 41.7307 40.9997C41.8384 40.9997 41.9417 40.9569 42.0179 40.8807L43.8807 39.0179C43.9185 38.9802 43.9485 38.9354 43.969 38.8862C43.9895 38.8369 44 38.784 44 38.7307C44 38.6773 43.9895 38.6245 43.969 38.5752C43.9485 38.5259 43.9185 38.4811 43.8807 38.4435V38.4435Z" fill="white"/>
</svg>
