<svg width="50" height="50" viewBox="0 0 50 50" fill="none" xmlns="http://www.w3.org/2000/svg">
<path d="M11.2813 13.7564C11.281 13.6321 11.3162 13.5103 11.3827 13.4053C11.4493 13.3002 11.5444 13.2164 11.657 13.1636C11.7695 13.1107 11.8948 13.0911 12.0181 13.107C12.1414 13.1229 12.2577 13.1737 12.3531 13.2533L23.6195 22.6115C24.1477 23.0501 24.8127 23.2903 25.4993 23.2903C26.1859 23.2903 26.8509 23.0501 27.3791 22.6115L38.6469 13.2533C38.7424 13.1739 38.8585 13.1233 38.9817 13.1076C39.1049 13.0918 39.23 13.1114 39.3424 13.1642C39.4549 13.2171 39.5499 13.3008 39.6164 13.4057C39.6829 13.5106 39.7182 13.6322 39.718 13.7564V32.9569C39.7178 33.7371 39.4078 34.4852 38.856 35.0368C38.3043 35.5884 37.556 35.8983 36.7758 35.8983H14.2234C13.4432 35.8983 12.695 35.5884 12.1433 35.0368C11.5915 34.4852 11.2814 33.7371 11.2813 32.9569V13.7564Z" stroke="black" stroke-width="3" stroke-linecap="round" stroke-linejoin="round"/>
<path d="M23.6661 25.9977L29.3405 20.9854L33.6718 17.3855V35.8983L12.5 34.5L11.2812 18.5784L20.2631 26.0488C20.7431 26.4478 21.35 26.662 21.9741 26.6527C22.5982 26.6433 23.1984 26.411 23.6661 25.9977Z" fill="black"/>
<path d="M29.3391 20.984L29.3405 20.9854M29.3405 20.9854L23.6661 25.9977C23.1984 26.411 22.5982 26.6433 21.9741 26.6527C21.35 26.662 20.7431 26.4478 20.2631 26.0488L11.2812 18.5784L12.5 34.5L33.6718 35.8983V17.3855L29.3405 20.9854Z" stroke="black" stroke-width="3" stroke-linecap="round" stroke-linejoin="round"/>
</svg>
