<svg width="41" height="41" viewBox="0 0 41 41" fill="none" xmlns="http://www.w3.org/2000/svg">
<g clip-path="url(#clip0_639_89)">
<path d="M20.3 40.6C31.5114 40.6 40.6 31.5114 40.6 20.3C40.6 9.08862 31.5114 0 20.3 0C9.08862 0 0 9.08862 0 20.3C0 31.5114 9.08862 40.6 20.3 40.6Z" fill="#79174C"/>
<path d="M20.5 14.75C20.5 14.75 19.375 13 16.75 13C14.125 13 13 14.75 13 14.75V27C13 27 14.125 26.125 16.75 26.125C19.375 26.125 20.5 27 20.5 27M20.5 14.75V27M20.5 14.75C20.5 14.75 21.625 13 24.25 13C26.875 13 28 14.75 28 14.75V27C28 27 26.875 26.125 24.25 26.125C21.625 26.125 20.5 27 20.5 27" stroke="#FF70BD" stroke-width="2.5" stroke-linecap="round" stroke-linejoin="round"/>
</g>
<defs>
<clipPath id="clip0_639_89">
<rect width="40.6" height="40.6" fill="white"/>
</clipPath>
</defs>
</svg>
